<?xml version="1.0" encoding="UTF-8"?><svg id="Capa_1" xmlns="http://www.w3.org/2000/svg" viewBox="0 0 300.72 149"><defs><style>.cls-1{fill:#fff;}.cls-2{fill:#e30613;}</style></defs><path class="cls-2" d="M300.72,0v149s-300.72,0-300.72,0V0s300.72,0,300.72,0ZM38.29,68.81l6.62-6.78V21.69s-9.78-8.22-9.78-8.22l-21.83.08.02,123.39,21.72-.07,9.89-11.44-.06-50.08-6.57-6.54ZM96.25,13.79l-9.46-.3c-3.81,17.46-6.05,34.01-11.1,52.54-5.13-18.46-7.29-35.15-11.14-52.48l-9.54-.13,15.13,79.52.93,43.53h9.2s.75-41.85.75-41.85l15.23-80.82ZM124.78,136.32l.02-114.84,10.61-.49-.25-7.39-30.68.05-.1,7.43,10.48.24.06,115.42,9.86-.43ZM172.33,75.21l-.23-10.06-15.65-.28V24.02s15.8-.33,15.8-.33l-.2-10.17-25.32-.19v123.59s25.51-.04,25.51-.04l-.08-10.48-15.7-.15.02-50.97,15.84-.07ZM224.58,136.56l-22.41-72.22,22.53-50.94-10.08-.17-20.21,46.41-.45-46.36-9.61.03v123.39s9.64.07,9.64.07l.03-54.12c0-1.11,1.31-3.12,2.42-4.21l17.92,58.13c3.28.32,6.01.32,10.21,0ZM246.82,136.18l-.02-122.37-9.76.07v122.85s9.78-.54,9.78-.54ZM278.7,135.82V21.6s10.86-.64,10.86-.64l-.62-7.31-30.49-.04-.31,7.36,10.56.52.06,115.04c4.23.24,7.29.25,9.93-.7Z"/><path class="cls-1" d="M38.95,68.42l6.51,6.5.06,49.75-9.8,11.36-21.52.07-.02-122.56,21.64-.08,9.68,8.17v40.07s-6.55,6.74-6.55,6.74ZM35.69,63.62l-.04-41.22-11.86-.02-.04,41.08c3.72.71,7.74.71,11.94.16ZM35.68,124.56l-.02-51.2-11.89-.07v51.31s11.91-.05,11.91-.05Z"/><path class="cls-1" d="M223.55,135.72c-4.16.33-6.87.33-10.12,0l-17.75-57.74c-1.1,1.08-2.4,3.08-2.4,4.18l-.03,53.76-9.55-.07V13.3s9.51-.03,9.51-.03l.45,46.05,20.02-46.1,9.99.17-22.33,50.6,22.21,71.73Z"/><path class="cls-1" d="M96.38,13.76l-15.09,80.28-.74,41.56h-9.11s-.93-43.23-.93-43.23L55.51,13.39l9.45.13c3.82,17.22,5.96,33.79,11.04,52.13,5.01-18.4,7.22-34.84,11-52.19l9.37.3Z"/><polygon class="cls-1" points="171.77 74.77 156.07 74.84 156.05 125.48 171.62 125.63 171.69 136.03 146.4 136.07 146.41 13.31 171.5 13.5 171.69 23.6 156.04 23.93 156.04 64.5 171.55 64.78 171.77 74.77"/><polygon class="cls-1" points="124.65 135.48 114.88 135.9 114.82 21.25 104.44 21.01 104.53 13.63 134.93 13.58 135.18 20.91 124.67 21.4 124.65 135.48"/><path class="cls-1" d="M277.18,134.98c-2.61.94-5.65.94-9.84.7l-.06-114.27-10.47-.51.3-7.31,30.21.04.61,7.26-10.77.64v113.46Z"/><polygon class="cls-1" points="245.58 135.34 235.89 135.88 235.89 13.85 245.56 13.78 245.58 135.34"/><polygon class="cls-2" points="35.68 124.56 23.78 124.61 23.77 73.3 35.66 73.36 35.68 124.56"/><path class="cls-2" d="M35.69,63.62c-4.19.55-8.21.55-11.94-.16l.04-41.08,11.86.02.04,41.22Z"/></svg>